<mxfile host="app.diagrams.net" modified="2021-07-06T17:53:34.372Z" agent="5.0 (Windows NT 10.0; Win64; x64) AppleWebKit/537.36 (KHTML, like Gecko) Chrome/91.0.4472.114 Safari/537.36" etag="1bdI_OZ5mD4BuD3lJRSz" version="14.8.2" type="github">
  <diagram id="sw47njnz5deMHIHxYDuy" name="Page-1">
    <mxGraphModel dx="868" dy="450" grid="1" gridSize="10" guides="1" tooltips="1" connect="1" arrows="1" fold="1" page="1" pageScale="1" pageWidth="827" pageHeight="1169" math="0" shadow="0">
      <root>
        <mxCell id="0" />
        <mxCell id="1" parent="0" />
        <mxCell id="MGX2hzuNvd2ccL41gHIi-12" value="" style="edgeStyle=orthogonalEdgeStyle;rounded=0;orthogonalLoop=1;jettySize=auto;html=1;" edge="1" parent="1" source="MGX2hzuNvd2ccL41gHIi-1" target="MGX2hzuNvd2ccL41gHIi-5">
          <mxGeometry relative="1" as="geometry" />
        </mxCell>
        <mxCell id="MGX2hzuNvd2ccL41gHIi-1" value="SAP" style="strokeWidth=2;html=1;shape=mxgraph.flowchart.database;whiteSpace=wrap;" vertex="1" parent="1">
          <mxGeometry x="50" y="210" width="70" height="80" as="geometry" />
        </mxCell>
        <mxCell id="MGX2hzuNvd2ccL41gHIi-14" value="" style="edgeStyle=orthogonalEdgeStyle;rounded=0;orthogonalLoop=1;jettySize=auto;html=1;" edge="1" parent="1" source="MGX2hzuNvd2ccL41gHIi-5" target="MGX2hzuNvd2ccL41gHIi-9">
          <mxGeometry relative="1" as="geometry" />
        </mxCell>
        <mxCell id="MGX2hzuNvd2ccL41gHIi-5" value="&lt;br&gt;BOOK&lt;br&gt;OBZ" style="strokeWidth=2;html=1;shape=mxgraph.flowchart.database;whiteSpace=wrap;" vertex="1" parent="1">
          <mxGeometry x="203" y="210" width="70" height="80" as="geometry" />
        </mxCell>
        <mxCell id="MGX2hzuNvd2ccL41gHIi-6" value="Cognus" style="strokeWidth=2;html=1;shape=mxgraph.flowchart.database;whiteSpace=wrap;" vertex="1" parent="1">
          <mxGeometry x="50" y="320" width="70" height="80" as="geometry" />
        </mxCell>
        <mxCell id="MGX2hzuNvd2ccL41gHIi-7" value="" style="endArrow=classic;html=1;entryX=0.286;entryY=1;entryDx=0;entryDy=0;entryPerimeter=0;" edge="1" parent="1" target="MGX2hzuNvd2ccL41gHIi-5">
          <mxGeometry width="50" height="50" relative="1" as="geometry">
            <mxPoint x="120" y="359.5" as="sourcePoint" />
            <mxPoint x="230" y="290" as="targetPoint" />
          </mxGeometry>
        </mxCell>
        <mxCell id="MGX2hzuNvd2ccL41gHIi-18" value="" style="edgeStyle=orthogonalEdgeStyle;rounded=0;orthogonalLoop=1;jettySize=auto;html=1;" edge="1" parent="1">
          <mxGeometry relative="1" as="geometry">
            <mxPoint x="474.5" y="260" as="sourcePoint" />
            <mxPoint x="574.5" y="260" as="targetPoint" />
          </mxGeometry>
        </mxCell>
        <mxCell id="MGX2hzuNvd2ccL41gHIi-9" value="Data Warehouse" style="rounded=1;whiteSpace=wrap;html=1;" vertex="1" parent="1">
          <mxGeometry x="353.5" y="230" width="120" height="60" as="geometry" />
        </mxCell>
        <mxCell id="MGX2hzuNvd2ccL41gHIi-16" value="" style="edgeStyle=orthogonalEdgeStyle;rounded=0;orthogonalLoop=1;jettySize=auto;html=1;" edge="1" parent="1" source="MGX2hzuNvd2ccL41gHIi-15" target="MGX2hzuNvd2ccL41gHIi-9">
          <mxGeometry relative="1" as="geometry" />
        </mxCell>
        <mxCell id="MGX2hzuNvd2ccL41gHIi-15" value="CockPit" style="rounded=1;whiteSpace=wrap;html=1;" vertex="1" parent="1">
          <mxGeometry x="354" y="360" width="120" height="60" as="geometry" />
        </mxCell>
        <mxCell id="MGX2hzuNvd2ccL41gHIi-17" value="Power BI" style="rhombus;whiteSpace=wrap;html=1;rounded=1;" vertex="1" parent="1">
          <mxGeometry x="571.5" y="220" width="80" height="80" as="geometry" />
        </mxCell>
        <mxCell id="MGX2hzuNvd2ccL41gHIi-19" value="" style="endArrow=classic;html=1;" edge="1" parent="1">
          <mxGeometry width="50" height="50" relative="1" as="geometry">
            <mxPoint x="80" y="160" as="sourcePoint" />
            <mxPoint x="80" y="208" as="targetPoint" />
          </mxGeometry>
        </mxCell>
        <mxCell id="MGX2hzuNvd2ccL41gHIi-20" value="Download do Sap" style="text;html=1;align=center;verticalAlign=middle;resizable=0;points=[];autosize=1;strokeColor=none;" vertex="1" parent="1">
          <mxGeometry x="80" y="170" width="110" height="20" as="geometry" />
        </mxCell>
        <mxCell id="MGX2hzuNvd2ccL41gHIi-21" value="Upload no &lt;br&gt;Book OBZ" style="text;html=1;align=center;verticalAlign=middle;resizable=0;points=[];autosize=1;strokeColor=none;" vertex="1" parent="1">
          <mxGeometry x="120" y="280" width="70" height="30" as="geometry" />
        </mxCell>
        <mxCell id="MGX2hzuNvd2ccL41gHIi-23" value="" style="endArrow=classic;html=1;" edge="1" parent="1">
          <mxGeometry width="50" height="50" relative="1" as="geometry">
            <mxPoint x="82" y="450" as="sourcePoint" />
            <mxPoint x="81.5" y="400" as="targetPoint" />
          </mxGeometry>
        </mxCell>
        <mxCell id="MGX2hzuNvd2ccL41gHIi-24" value="Dados do Cognus" style="text;html=1;align=center;verticalAlign=middle;resizable=0;points=[];autosize=1;strokeColor=none;" vertex="1" parent="1">
          <mxGeometry x="80" y="420" width="110" height="20" as="geometry" />
        </mxCell>
        <mxCell id="MGX2hzuNvd2ccL41gHIi-25" value="Criação do&amp;nbsp;&lt;br&gt;banco de dados" style="text;html=1;align=center;verticalAlign=middle;resizable=0;points=[];autosize=1;strokeColor=none;" vertex="1" parent="1">
          <mxGeometry x="270" y="200" width="100" height="30" as="geometry" />
        </mxCell>
      </root>
    </mxGraphModel>
  </diagram>
</mxfile>
